<?xml version="1.0" encoding="UTF-8" standalone="no"?>
<!-- Created with Inkscape (http://www.inkscape.org/) -->

<svg
   width="210mm"
   height="297mm"
   viewBox="0 0 210 297"
   version="1.1"
   id="svg1"
   inkscape:version="1.3.2 (091e20ef0f, 2023-11-25, custom)"
   sodipodi:docname="extend_gluing.svg"
   inkscape:export-filename="extend_gluing.png"
   inkscape:export-xdpi="303"
   inkscape:export-ydpi="303"
   xmlns:inkscape="http://www.inkscape.org/namespaces/inkscape"
   xmlns:sodipodi="http://sodipodi.sourceforge.net/DTD/sodipodi-0.dtd"
   xmlns="http://www.w3.org/2000/svg"
   xmlns:svg="http://www.w3.org/2000/svg">
  <sodipodi:namedview
     id="namedview1"
     pagecolor="#ffffff"
     bordercolor="#666666"
     borderopacity="1.0"
     inkscape:showpageshadow="2"
     inkscape:pageopacity="0.0"
     inkscape:pagecheckerboard="0"
     inkscape:deskcolor="#d1d1d1"
     inkscape:document-units="mm"
     inkscape:zoom="3.5486888"
     inkscape:cx="183.30714"
     inkscape:cy="367.74146"
     inkscape:window-width="1920"
     inkscape:window-height="999"
     inkscape:window-x="0"
     inkscape:window-y="45"
     inkscape:window-maximized="1"
     inkscape:current-layer="svg1" />
  <defs
     id="defs1">
    <inkscape:path-effect
       effect="bspline"
       id="path-effect6"
       is_visible="true"
       lpeversion="1.3"
       weight="33.333333"
       steps="2"
       helper_size="0"
       apply_no_weight="true"
       apply_with_weight="true"
       only_selected="false"
       uniform="false" />
    <inkscape:path-effect
       effect="bspline"
       id="path-effect5"
       is_visible="true"
       lpeversion="1.3"
       weight="33.333333"
       steps="2"
       helper_size="0"
       apply_no_weight="true"
       apply_with_weight="true"
       only_selected="false"
       uniform="false" />
    <inkscape:path-effect
       effect="bspline"
       id="path-effect4"
       is_visible="true"
       lpeversion="1.3"
       weight="33.333333"
       steps="2"
       helper_size="0"
       apply_no_weight="true"
       apply_with_weight="true"
       only_selected="false"
       uniform="false" />
    <inkscape:path-effect
       effect="bspline"
       id="path-effect3"
       is_visible="true"
       lpeversion="1.3"
       weight="33.333333"
       steps="2"
       helper_size="0"
       apply_no_weight="true"
       apply_with_weight="true"
       only_selected="false"
       uniform="false" />
  </defs>
  <g
     inkscape:label="Layer 1"
     inkscape:groupmode="layer"
     id="layer1">
    <path
       style="fill:none;stroke:#000000;stroke-width:0.264583px;stroke-linecap:butt;stroke-linejoin:miter;stroke-opacity:1"
       d="m 47.542151,70.395821 c 2.983684,-0.808359 7.694008,1.140401 10.24509,4.660839 2.551081,3.520438 2.942906,8.612349 2.209974,12.887261 -0.732933,4.274911 -2.590555,7.732576 -5.400871,8.588811 -2.810317,0.856235 -6.573139,-0.88896 -9.328761,-3.09616 -2.755623,-2.2072 -4.503901,-4.876261 -4.873213,-7.470189 -0.369312,-2.593927 0.640337,-5.112565 1.773707,-8.154683 1.133371,-3.042118 2.390391,-6.607521 5.374074,-7.415879 z"
       id="path3"
       inkscape:path-effect="#path-effect3"
       inkscape:original-d="m 45.815514,67.638704 c 4.710321,1.948757 9.420646,3.897516 14.130967,5.846276 0.39184,5.092118 0.783667,10.184029 1.175499,15.276046 -1.857698,3.457806 -3.715319,6.915471 -5.57298,10.373207 -3.762973,-1.745266 -7.525795,-3.49046 -11.288691,-5.235691 -1.748348,-2.66917 -3.496627,-5.338231 -5.244941,-8.007348 1.00969,-2.518738 2.01934,-5.037375 3.029008,-7.556063 1.257072,-3.565549 2.514092,-7.130952 3.771138,-10.696427 z"
       inkscape:export-filename="./path3.png"
       inkscape:export-xdpi="303"
       inkscape:export-ydpi="303" />
    <path
       style="fill:none;stroke:#000000;stroke-width:0.264583px;stroke-linecap:butt;stroke-linejoin:miter;stroke-opacity:1"
       d="m 34.0402,70.781094 c 7.376965,-3.249586 18.28046,-5.803041 24.947674,-2.961088 6.667215,2.841954 9.098053,11.078986 10.399331,17.913245 1.301278,6.834259 1.472939,12.265358 -0.500904,18.142209 -1.973842,5.87685 -6.093022,12.19908 -12.287984,14.75471 -6.194962,2.55564 -14.465295,1.3446 -20.763937,-2.20644 C 29.535737,112.87269 25.209123,106.98192 22.725755,100.84159 20.242386,94.701266 19.602377,88.311756 21.207624,83.144039 22.812871,77.976322 26.663234,74.03068 34.0402,70.781094 Z"
       id="path4"
       inkscape:path-effect="#path-effect4"
       inkscape:original-d="m 30.513673,70.084962 c 10.903492,-2.553456 21.806987,-5.10691 32.71048,-7.660364 2.430936,8.237362 4.861774,16.474394 7.292662,24.711593 0.171667,5.431319 0.343329,10.862418 0.514993,16.293629 -4.119348,6.32249 -8.238529,12.64472 -12.357793,18.96708 -8.27066,-1.21109 -16.540993,-2.42213 -24.811489,-3.6332 -4.326787,-5.89101 -8.653403,-11.78178 -12.980105,-17.67267 -0.640035,-6.389764 -1.280044,-12.779274 -1.920066,-19.168911 3.850516,-3.945797 7.700879,-7.891439 11.551318,-11.837157 z" />
    <path
       style="fill:none;stroke:#aa0000;stroke-width:0.265;stroke-linecap:butt;stroke-linejoin:miter;stroke-opacity:1;stroke-dasharray:0.52999997,0.26499999;stroke-dashoffset:0"
       d="m 40.313902,86.280299 c 1.713533,0.0014 5.140599,0.0041 9.289489,0.05895 4.14889,0.0549 9.019409,0.161989 11.715494,0.541158 2.696086,0.379168 3.217621,1.030384 3.154218,2.760301 -0.0634,1.729917 -0.711732,4.538411 -2.721801,6.306278 -2.010069,1.767867 -5.381729,2.495024 -8.373664,2.55508 -2.991936,0.06006 -5.603975,-0.546979 -8.201694,-1.56651 -2.59772,-1.01953 -5.180966,-2.451487 -7.074068,-3.902296 -1.893102,-1.450809 -3.095959,-2.920382 -3.576038,-3.980607 -0.480079,-1.060225 -0.237363,-1.711047 0.562207,-2.105098 0.79957,-0.39405 2.155932,-0.531311 2.834128,-0.599942 0.678196,-0.06863 0.678196,-0.06866 2.391729,-0.06731 z"
       id="path5"
       inkscape:path-effect="#path-effect5"
       inkscape:original-d="m 38.600369,86.278949 c 3.427066,0.0027 6.854132,0.0054 10.281197,0.0081 4.870715,0.107095 9.741234,0.214185 14.611848,0.321281 0.521557,0.651243 1.043093,1.302459 1.56464,1.953691 -0.648354,2.808602 -1.296681,5.617096 -1.945024,8.425643 -3.371797,0.727186 -6.743456,1.454346 -10.115187,2.181516 -2.612141,-0.60706 -5.22418,-1.214094 -7.836271,-1.821143 -2.583349,-1.432012 -5.166595,-2.863969 -7.749891,-4.295955 -1.202907,-1.469633 -2.405764,-2.939206 -3.608647,-4.40881 0.242726,-0.650846 0.485442,-1.301668 0.728162,-1.952503 1.356419,-0.137266 2.712781,-0.274527 4.069173,-0.41179 z" />
    <path
       style="fill:none;stroke:#aa0000;stroke-width:0.264583px;stroke-linecap:butt;stroke-linejoin:miter;stroke-opacity:1;stroke-dasharray:0.52916598,0.26458299;stroke-dashoffset:0"
       d="m 33.463663,82.656195 c 1.406811,-0.964007 2.597886,-1.107625 5.237032,-1.217269 2.639146,-0.109644 6.726199,-0.18531 10.244419,-0.238275 3.51822,-0.05297 6.467412,-0.08323 8.625511,0.08379 2.158099,0.167018 3.524992,0.531303 4.960008,0.930138 1.435017,0.398836 2.938073,0.832199 3.629261,3.228422 0.691187,2.396222 0.570483,6.755122 -0.766958,10.478121 -1.337442,3.723 -3.891518,6.809889 -7.652182,8.108429 -3.760665,1.29854 -8.727668,0.80868 -13.063292,-0.65255 -4.335623,-1.46123 -8.039624,-3.89374 -10.578675,-6.753669 -2.539051,-2.859929 -3.913026,-6.147102 -3.788737,-8.682936 0.124288,-2.535834 1.746802,-4.320193 3.153613,-5.2842 z"
       id="path6"
       inkscape:path-effect="#path-effect6"
       inkscape:original-d="m 33.679397,81.835807 c 1.191077,-0.143619 2.382152,-0.287237 3.573229,-0.430856 4.087215,-0.07567 8.174268,-0.151334 12.2614,-0.227002 2.949308,-0.03026 5.8985,-0.06053 8.847749,-0.09079 1.366949,0.3643 2.733842,0.728583 4.100761,1.092875 1.503114,0.433379 3.00617,0.866743 4.509254,1.300115 -0.120708,4.359073 -0.241411,8.717973 -0.362119,13.076962 -2.554176,3.08701 -5.108252,6.173899 -7.662381,9.260849 -4.9672,-0.48988 -9.934204,-0.97973 -14.901307,-1.46959 -3.704145,-2.4326 -7.408145,-4.86511 -11.112216,-7.297663 -1.374032,-3.287305 -2.748005,-6.574478 -4.122008,-9.861714 1.622579,-1.784432 3.245091,-3.568793 4.867638,-5.353186 z" />
    <g
       inkscape:label=""
       transform="translate(46.917535,71.143688)"
       id="g6">
      <g
         fill="#000000"
         fill-opacity="1"
         id="g2"
         transform="matrix(0.352778,0,0,0.352778,-0.901524,-0.701146)">
        <g
           id="use1"
           transform="translate(1.993,8.8000002)">
          <path
             d="M 6.265625,-5.671875 C 6.75,-6.453125 7.171875,-6.484375 7.53125,-6.5 c 0.125,-0.015625 0.140625,-0.171875 0.140625,-0.1875 0,-0.078125 -0.0625,-0.125 -0.140625,-0.125 -0.25,0 -0.546875,0.03125 -0.8125,0.03125 -0.328125,0 -0.671875,-0.03125 -0.984375,-0.03125 -0.0625,0 -0.1875,0 -0.1875,0.1875 0,0.109375 0.078125,0.125 0.15625,0.125 0.265625,0.015625 0.453125,0.125 0.453125,0.328125 0,0.15625 -0.140625,0.375 -0.140625,0.375 l -3.0625,4.875 -0.6875,-5.28125 C 2.265625,-6.375 2.5,-6.5 2.953125,-6.5 c 0.140625,0 0.25,0 0.25,-0.203125 0,-0.078125 -0.078125,-0.109375 -0.125,-0.109375 -0.40625,0 -0.828125,0.03125 -1.25,0.03125 -0.171875,0 -0.359375,0 -0.546875,0 -0.171875,0 -0.359375,-0.03125 -0.53125,-0.03125 -0.078125,0 -0.1875,0 -0.1875,0.1875 0,0.125 0.078125,0.125 0.25,0.125 0.546875,0 0.5625,0.09375 0.59375,0.34375 L 2.1875,-0.015625 C 2.21875,0.1875 2.265625,0.21875 2.390625,0.21875 c 0.15625,0 0.203125,-0.046875 0.28125,-0.171875 z m 0,0"
             id="path2" />
        </g>
      </g>
    </g>
  </g>
  <g
     inkscape:label=""
     transform="translate(26.514327,75.627459)"
     id="g9">
    <g
       fill="#000000"
       fill-opacity="1"
       id="g3"
       transform="matrix(0.352778,0,0,0.352778,-0.901524,-0.697221)">
      <g
         id="use2"
         transform="translate(1.993,9.4820004)">
        <path
           d="M 6.265625,-5.671875 C 6.75,-6.453125 7.171875,-6.484375 7.53125,-6.5 c 0.125,-0.015625 0.140625,-0.171875 0.140625,-0.1875 0,-0.078125 -0.0625,-0.125 -0.140625,-0.125 -0.25,0 -0.546875,0.03125 -0.8125,0.03125 -0.328125,0 -0.671875,-0.03125 -0.984375,-0.03125 -0.0625,0 -0.1875,0 -0.1875,0.1875 0,0.109375 0.078125,0.125 0.15625,0.125 0.265625,0.015625 0.453125,0.125 0.453125,0.328125 0,0.15625 -0.140625,0.375 -0.140625,0.375 l -3.0625,4.875 -0.6875,-5.28125 C 2.265625,-6.375 2.5,-6.5 2.953125,-6.5 c 0.140625,0 0.25,0 0.25,-0.203125 0,-0.078125 -0.078125,-0.109375 -0.125,-0.109375 -0.40625,0 -0.828125,0.03125 -1.25,0.03125 -0.171875,0 -0.359375,0 -0.546875,0 -0.171875,0 -0.359375,-0.03125 -0.53125,-0.03125 -0.078125,0 -0.1875,0 -0.1875,0.1875 0,0.125 0.078125,0.125 0.25,0.125 0.546875,0 0.5625,0.09375 0.59375,0.34375 L 2.1875,-0.015625 C 2.21875,0.1875 2.265625,0.21875 2.390625,0.21875 c 0.15625,0 0.203125,-0.046875 0.28125,-0.171875 z m 0,0"
           id="path8" />
      </g>
    </g>
    <g
       fill="#000000"
       fill-opacity="1"
       id="g4"
       transform="matrix(0.352778,0,0,0.352778,-0.901524,-0.697221)">
      <g
         id="use3"
         transform="translate(10.018,5.8670001)">
        <path
           d="m 2.015625,-3.296875 c 0.0625,-0.109375 0.0625,-0.171875 0.0625,-0.21875 0,-0.21875 -0.1875,-0.375 -0.40625,-0.375 -0.265625,0 -0.34375,0.21875 -0.375,0.328125 L 0.375,-0.546875 c -0.015625,0.015625 -0.046875,0.09375 -0.046875,0.109375 0,0.078125 0.21875,0.15625 0.28125,0.15625 0.046875,0 0.046875,-0.015625 0.09375,-0.125 z m 0,0"
           id="path9" />
      </g>
    </g>
  </g>
  <g
     inkscape:label=""
     transform="matrix(0.73282616,0,0,0.73282616,41.717252,82.826856)"
     id="g13">
    <g
       fill="#000000"
       fill-opacity="1"
       id="g5"
       transform="matrix(0.352778,0,0,0.352778,-0.901524,-0.715389)">
      <g
         id="use4"
         transform="translate(1.993,8.8559999)">
        <path
           d="M 6.265625,-5.671875 C 6.75,-6.453125 7.171875,-6.484375 7.53125,-6.5 c 0.125,-0.015625 0.140625,-0.171875 0.140625,-0.1875 0,-0.078125 -0.0625,-0.125 -0.140625,-0.125 -0.25,0 -0.546875,0.03125 -0.8125,0.03125 -0.328125,0 -0.671875,-0.03125 -0.984375,-0.03125 -0.0625,0 -0.1875,0 -0.1875,0.1875 0,0.109375 0.078125,0.125 0.15625,0.125 0.265625,0.015625 0.453125,0.125 0.453125,0.328125 0,0.15625 -0.140625,0.375 -0.140625,0.375 l -3.0625,4.875 -0.6875,-5.28125 C 2.265625,-6.375 2.5,-6.5 2.953125,-6.5 c 0.140625,0 0.25,0 0.25,-0.203125 0,-0.078125 -0.078125,-0.109375 -0.125,-0.109375 -0.40625,0 -0.828125,0.03125 -1.25,0.03125 -0.171875,0 -0.359375,0 -0.546875,0 -0.171875,0 -0.359375,-0.03125 -0.53125,-0.03125 -0.078125,0 -0.1875,0 -0.1875,0.1875 0,0.125 0.078125,0.125 0.25,0.125 0.546875,0 0.5625,0.09375 0.59375,0.34375 L 2.1875,-0.015625 C 2.21875,0.1875 2.265625,0.21875 2.390625,0.21875 c 0.15625,0 0.203125,-0.046875 0.28125,-0.171875 z m 0,0"
           id="path10" />
      </g>
    </g>
    <g
       fill="#000000"
       fill-opacity="1"
       id="g11"
       transform="matrix(0.352778,0,0,0.352778,-0.901524,-0.715389)">
      <g
         id="use5"
         transform="translate(7.8039999,10.35)">
        <path
           d="M 3.59375,-2.21875 C 3.59375,-2.984375 3.5,-3.546875 3.1875,-4.03125 2.96875,-4.34375 2.53125,-4.625 1.984375,-4.625 c -1.625,0 -1.625,1.90625 -1.625,2.40625 0,0.5 0,2.359375 1.625,2.359375 1.609375,0 1.609375,-1.859375 1.609375,-2.359375 z M 1.984375,-0.0625 c -0.328125,0 -0.75,-0.1875 -0.890625,-0.75 C 1,-1.21875 1,-1.796875 1,-2.3125 1,-2.828125 1,-3.359375 1.09375,-3.734375 1.25,-4.28125 1.6875,-4.4375 1.984375,-4.4375 c 0.375,0 0.734375,0.234375 0.859375,0.640625 0.109375,0.375 0.125,0.875 0.125,1.484375 0,0.515625 0,1.03125 -0.09375,1.46875 -0.140625,0.640625 -0.609375,0.78125 -0.890625,0.78125 z m 0,0"
           id="path11" />
      </g>
    </g>
    <g
       fill="#000000"
       fill-opacity="1"
       id="g7"
       transform="matrix(0.352778,0,0,0.352778,-0.901524,-0.715389)">
      <g
         id="use6"
         transform="translate(14.487,8.8559999)">
        <path
           d="M 3.875,-2.765625 1.890625,-4.75 C 1.765625,-4.875 1.75,-4.890625 1.671875,-4.890625 1.5625,-4.890625 1.46875,-4.8125 1.46875,-4.6875 c 0,0.0625 0.015625,0.078125 0.125,0.1875 l 2,2 -2,2.015625 c -0.109375,0.109375 -0.125,0.125 -0.125,0.1875 0,0.125 0.09375,0.203125 0.203125,0.203125 0.078125,0 0.09375,-0.015625 0.21875,-0.140625 L 3.875,-2.21875 l 2.0625,2.0625 c 0.015625,0.015625 0.078125,0.0625 0.140625,0.0625 0.125,0 0.203125,-0.078125 0.203125,-0.203125 0,-0.015625 0,-0.046875 -0.03125,-0.109375 C 6.234375,-0.421875 4.65625,-1.984375 4.15625,-2.5 l 1.828125,-1.8125 c 0.046875,-0.0625 0.203125,-0.1875 0.25,-0.25 0,-0.015625 0.046875,-0.0625 0.046875,-0.125 0,-0.125 -0.078125,-0.203125 -0.203125,-0.203125 C 6,-4.890625 5.96875,-4.859375 5.859375,-4.75 Z m 0,0"
           id="path12" />
      </g>
    </g>
    <g
       fill="#000000"
       fill-opacity="1"
       id="g8"
       transform="matrix(0.352778,0,0,0.352778,-0.901524,-0.715389)">
      <g
         id="use7"
         transform="translate(24.450001,8.8559999)">
        <path
           d="M 2.671875,-3.125 H 3.03125 l 1.5,2.3125 C 4.625,-0.65625 4.859375,-0.265625 4.96875,-0.125 5.046875,0 5.078125,0 5.296875,0 h 1.375 c 0.1875,0 0.34375,0 0.34375,-0.171875 0,-0.09375 -0.0625,-0.15625 -0.15625,-0.171875 C 6.484375,-0.421875 6,-1.09375 5.765625,-1.40625 5.6875,-1.5 5.1875,-2.15625 4.53125,-3.234375 5.40625,-3.40625 6.265625,-3.78125 6.265625,-4.96875 6.265625,-6.34375 4.8125,-6.828125 3.625,-6.828125 H 0.5 c -0.1875,0 -0.34375,0 -0.34375,0.171875 0,0.171875 0.1875,0.171875 0.265625,0.171875 0.578125,0 0.625,0.078125 0.625,0.578125 v 4.984375 c 0,0.5 -0.046875,0.578125 -0.625,0.578125 -0.078125,0 -0.265625,0 -0.265625,0.171875 C 0.15625,0 0.3125,0 0.5,0 H 3.234375 C 3.40625,0 3.5625,0 3.5625,-0.171875 c 0,-0.171875 -0.171875,-0.171875 -0.28125,-0.171875 -0.5625,0 -0.609375,-0.078125 -0.609375,-0.578125 z m 1.921875,-0.5 c 0.28125,-0.359375 0.3125,-0.890625 0.3125,-1.328125 0,-0.484375 -0.0625,-1.015625 -0.375,-1.421875 0.40625,0.09375 1.390625,0.40625 1.390625,1.40625 0,0.65625 -0.296875,1.15625 -1.328125,1.34375 z M 2.671875,-5.9375 c 0,-0.21875 0,-0.546875 0.625,-0.546875 0.84375,0 1.265625,0.359375 1.265625,1.53125 0,1.28125 -0.3125,1.46875 -1.890625,1.46875 z M 1.3125,-0.34375 C 1.390625,-0.53125 1.390625,-0.8125 1.390625,-0.890625 V -5.9375 c 0,-0.09375 0,-0.359375 -0.078125,-0.546875 h 1.140625 c -0.125,0.171875 -0.125,0.359375 -0.125,0.515625 v 5.078125 c 0,0.09375 0,0.359375 0.078125,0.546875 z M 3.4375,-3.125 c 0.078125,-0.015625 0.109375,-0.03125 0.1875,-0.03125 0.15625,0 0.375,-0.015625 0.515625,-0.03125 0.15625,0.234375 1.234375,2.015625 2.0625,2.84375 h -0.96875 z m 0,0"
           id="path13" />
      </g>
    </g>
  </g>
  <g
     inkscape:label=""
     transform="matrix(0.79694636,0,0,0.79694636,53.639035,80.110682)"
     id="g18">
    <g
       fill="#000000"
       fill-opacity="1"
       id="g15"
       transform="matrix(0.352778,0,0,0.352778,-0.901524,-0.701146)">
      <g
         id="g14"
         transform="translate(1.993,8.8000002)">
        <path
           d="M 6.265625,-5.671875 C 6.75,-6.453125 7.171875,-6.484375 7.53125,-6.5 c 0.125,-0.015625 0.140625,-0.171875 0.140625,-0.1875 0,-0.078125 -0.0625,-0.125 -0.140625,-0.125 -0.25,0 -0.546875,0.03125 -0.8125,0.03125 -0.328125,0 -0.671875,-0.03125 -0.984375,-0.03125 -0.0625,0 -0.1875,0 -0.1875,0.1875 0,0.109375 0.078125,0.125 0.15625,0.125 0.265625,0.015625 0.453125,0.125 0.453125,0.328125 0,0.15625 -0.140625,0.375 -0.140625,0.375 l -3.0625,4.875 -0.6875,-5.28125 C 2.265625,-6.375 2.5,-6.5 2.953125,-6.5 c 0.140625,0 0.25,0 0.25,-0.203125 0,-0.078125 -0.078125,-0.109375 -0.125,-0.109375 -0.40625,0 -0.828125,0.03125 -1.25,0.03125 -0.171875,0 -0.359375,0 -0.546875,0 -0.171875,0 -0.359375,-0.03125 -0.53125,-0.03125 -0.078125,0 -0.1875,0 -0.1875,0.1875 0,0.125 0.078125,0.125 0.25,0.125 0.546875,0 0.5625,0.09375 0.59375,0.34375 L 2.1875,-0.015625 C 2.21875,0.1875 2.265625,0.21875 2.390625,0.21875 c 0.15625,0 0.203125,-0.046875 0.28125,-0.171875 z m 0,0"
           id="path14" />
      </g>
    </g>
    <g
       fill="#000000"
       fill-opacity="1"
       id="g17"
       transform="matrix(0.352778,0,0,0.352778,-0.901524,-0.701146)">
      <g
         id="g16"
         transform="translate(7.8039999,10.294)">
        <path
           d="m 3.21875,-1.578125 h 2.140625 c 0.09375,0 0.25,0 0.25,-0.15625 0,-0.1875 -0.15625,-0.1875 -0.25,-0.1875 H 3.21875 V -4.0625 c 0,-0.078125 0,-0.25 -0.15625,-0.25 -0.171875,0 -0.171875,0.15625 -0.171875,0.25 v 2.140625 H 0.75 c -0.09375,0 -0.265625,0 -0.265625,0.171875 0,0.171875 0.15625,0.171875 0.265625,0.171875 H 2.890625 V 0.5625 c 0,0.09375 0,0.265625 0.15625,0.265625 0.171875,0 0.171875,-0.171875 0.171875,-0.265625 z m 0,0"
           id="path15" />
      </g>
    </g>
  </g>
  <g
     inkscape:label=""
     transform="matrix(0.80254622,0,0,0.80254622,53.55757,85.614128)"
     id="g23">
    <g
       fill="#000000"
       fill-opacity="1"
       id="g20"
       transform="matrix(0.352778,0,0,0.352778,-0.901524,-0.701146)">
      <g
         id="g19"
         transform="translate(1.993,8.8000002)">
        <path
           d="M 6.265625,-5.671875 C 6.75,-6.453125 7.171875,-6.484375 7.53125,-6.5 c 0.125,-0.015625 0.140625,-0.171875 0.140625,-0.1875 0,-0.078125 -0.0625,-0.125 -0.140625,-0.125 -0.25,0 -0.546875,0.03125 -0.8125,0.03125 -0.328125,0 -0.671875,-0.03125 -0.984375,-0.03125 -0.0625,0 -0.1875,0 -0.1875,0.1875 0,0.109375 0.078125,0.125 0.15625,0.125 0.265625,0.015625 0.453125,0.125 0.453125,0.328125 0,0.15625 -0.140625,0.375 -0.140625,0.375 l -3.0625,4.875 -0.6875,-5.28125 C 2.265625,-6.375 2.5,-6.5 2.953125,-6.5 c 0.140625,0 0.25,0 0.25,-0.203125 0,-0.078125 -0.078125,-0.109375 -0.125,-0.109375 -0.40625,0 -0.828125,0.03125 -1.25,0.03125 -0.171875,0 -0.359375,0 -0.546875,0 -0.171875,0 -0.359375,-0.03125 -0.53125,-0.03125 -0.078125,0 -0.1875,0 -0.1875,0.1875 0,0.125 0.078125,0.125 0.25,0.125 0.546875,0 0.5625,0.09375 0.59375,0.34375 L 2.1875,-0.015625 C 2.21875,0.1875 2.265625,0.21875 2.390625,0.21875 c 0.15625,0 0.203125,-0.046875 0.28125,-0.171875 z m 0,0"
           id="path18" />
      </g>
    </g>
    <g
       fill="#000000"
       fill-opacity="1"
       id="g22"
       transform="matrix(0.352778,0,0,0.352778,-0.901524,-0.701146)">
      <g
         id="g21"
         transform="translate(7.8039999,10.294)">
        <path
           d="m 5.1875,-1.578125 c 0.109375,0 0.28125,0 0.28125,-0.15625 0,-0.1875 -0.171875,-0.1875 -0.28125,-0.1875 H 1.03125 c -0.109375,0 -0.28125,0 -0.28125,0.171875 0,0.171875 0.15625,0.171875 0.28125,0.171875 z m 0,0"
           id="path20" />
      </g>
    </g>
  </g>
</svg>
